PathFileType	4	(X/Y/Z)	 s03c0402.trc
DataRate	CameraRate	NumFrames	NumMarkers	Units	OrigDataRate	OrigDataStartFrame	OrigNumFrames
200	200	4	50	mm	200	251	2000
Frame#	Time	racr			lacr			c7			jug			rlel			rdr			llel			ldr			s2			lic			ric			lasi			rasi			rpsi			lpsi			rgt			lgt			rth1			rth2			rth3			rth4			rlfc			rmfc			rsh1			rsh2			rsh3			rsh4			rlmal			rcal			rtoe			rmt5			rmt1			lth1			lth2			lth4			lth3			llfc			lmfc			lsh1			lsh2			lsh3			lsh4			llmal			lcal			ltoe			lmt1			lmt5			SBIKE			LBIKE			RBIKE			
		X1	Y1	Z1	X2	Y2	Z2	X3	Y3	Z3	X4	Y4	Z4	X5	Y5	Z5	X6	Y6	Z6	X7	Y7	Z7	X8	Y8	Z8	X9	Y9	Z9	X10	Y10	Z10	X11	Y11	Z11	X12	Y12	Z12	X13	Y13	Z13	X14	Y14	Z14	X15	Y15	Z15	X16	Y16	Z16	X17	Y17	Z17	X18	Y18	Z18	X19	Y19	Z19	X20	Y20	Z20	X21	Y21	Z21	X22	Y22	Z22	X23	Y23	Z23	X24	Y24	Z24	X25	Y25	Z25	X26	Y26	Z26	X27	Y27	Z27	X28	Y28	Z28	X29	Y29	Z29	X30	Y30	Z30	X31	Y31	Z31	X32	Y32	Z32	X33	Y33	Z33	X34	Y34	Z34	X35	Y35	Z35	X36	Y36	Z36	X37	Y37	Z37	X38	Y38	Z38	X39	Y39	Z39	X40	Y40	Z40	X41	Y41	Z41	X42	Y42	Z42	X43	Y43	Z43	X44	Y44	Z44	X45	Y45	Z45	X46	Y46	Z46	X47	Y47	Z47	X48	Y48	Z48	X49	Y49	Z49	X50	Y50	Z50	
251	1.2550	543.098424	1404.274662	-66.623885	549.520009	1421.917421	-370.451529	462.349808	1477.722338	-218.196914	505.248646	1309.021414	-219.441031	531.497173	1164.393158	98.457538	735.374219	987.926605	1.064740	531.802764	1181.038935	-533.747100	732.050224	987.619025	-432.688944	-79.637429	1233.824884	-245.025277	119.693233	1209.698168	-419.359080	98.477137	1231.341565	-57.627968	115.210910	1135.174142	-384.399970	101.749593	1172.920757	-97.577929	-40.499607	1276.435648	-202.073450	-30.487747	1272.408604	-282.859032	18.237111	1165.970966	-37.171530	25.163275	1115.062431	-442.761615	136.164517	1068.676617	-20.316401	224.624558	1058.565015	-19.534856	295.576955	1009.565350	-23.172959	237.582228	1091.401558	-32.482478	407.092478	937.728284	-44.545243	414.882708	925.484471	-169.052639	352.942644	780.790117	-28.157756	343.624958	693.887354	-45.908283	290.733053	623.065562	-51.483308	370.690549	686.818082	-71.492955	237.571413	502.188311	-74.032485	175.462560	451.994465	-118.377243	485.689160	466.049231	-107.407541	364.909652	443.695737	-41.889807	393.579918	461.166352	-156.178256	96.080884	967.242182	-456.978067	155.234452	903.539958	-457.023115	187.357254	920.922178	-452.550642	175.415830	817.474334	-446.005796	250.869296	709.831601	-425.361298	246.779173	701.406211	-301.767714	149.667440	569.585429	-448.651348	126.014905	490.209276	-430.532237	60.917244	426.529109	-425.881501	152.099845	476.610249	-403.896720	-11.370860	320.134901	-406.594644	-85.907521	278.810339	-359.668949	221.099958	238.939541	-356.057789	126.875509	245.058129	-314.467465	101.035534	228.982754	-430.749938	-218.000434	945.241481	-233.678375	-8.193344	83.660066	-436.976346	-14.057627	80.550207	-36.655243	
252	1.2600	545.575475	1402.799566	-66.356746	551.800703	1420.328910	-370.413393	464.840462	1476.297310	-218.047215	507.396554	1307.469394	-219.219713	531.893792	1163.841711	100.319696	735.285557	987.767219	1.371351	532.026735	1180.374881	-535.007077	731.643386	987.343650	-433.243657	-77.976312	1234.646249	-245.166817	121.474397	1209.784904	-419.367864	100.015439	1231.350028	-57.627555	116.221442	1135.217914	-384.169873	102.902592	1173.077200	-97.646818	-38.877913	1277.196362	-202.117371	-28.711928	1273.099049	-282.918262	19.332836	1166.524231	-37.241092	26.152038	1115.707774	-442.909444	136.977902	1068.974738	-20.296364	225.326896	1058.588140	-19.512580	296.093278	1009.410350	-23.161542	238.379677	1091.398296	-32.460661	407.479560	937.300015	-44.466620	415.359579	925.026526	-168.922978	353.266445	780.389004	-28.102205	343.912945	693.466516	-45.875973	290.878885	622.716849	-51.395128	370.981987	686.480214	-71.489037	237.701913	501.837183	-74.020864	175.588602	451.709785	-118.354181	485.818994	465.838049	-107.414317	365.032159	443.474301	-41.871636	393.710690	460.877120	-156.131133	96.566907	967.571840	-457.207309	155.560571	903.767865	-457.244174	187.729434	921.076167	-452.770475	175.554121	817.656433	-446.230312	250.613841	709.913245	-425.866718	246.529918	701.329814	-302.007707	149.417961	569.528705	-448.789765	125.798469	490.086056	-430.600825	60.681554	426.507598	-425.967337	151.931709	476.544613	-404.062475	-11.619535	320.138615	-406.702187	-86.125502	278.771280	-359.696863	220.968652	239.051453	-356.098757	126.673625	245.208240	-314.512845	100.870718	229.027075	-430.815311	-217.955009	945.262234	-233.702498	-8.193708	83.663379	-436.975675	-14.021697	80.541615	-36.654319	
253	1.2650	548.020024	1401.379967	-66.078099	554.232960	1418.772880	-370.302669	467.437100	1474.898990	-217.834367	509.572520	1305.966914	-218.956765	532.208029	1163.244197	102.117214	735.145305	987.620313	1.726666	532.234101	1179.701005	-536.145866	731.222677	987.120938	-433.758972	-76.286919	1235.534655	-245.256270	123.324724	1209.921085	-419.352400	101.672723	1231.389970	-57.618777	117.581393	1135.481077	-384.384625	104.128267	1173.265854	-97.729634	-37.035602	1278.005582	-202.235079	-26.861385	1273.844015	-282.982937	20.580446	1167.215348	-37.325641	27.331664	1116.157599	-442.954155	137.803257	1069.279361	-20.335138	226.121873	1058.629093	-19.501777	296.811142	1009.285327	-23.102681	239.313891	1091.309835	-32.479914	407.969838	936.810415	-44.413329	415.947387	924.664020	-168.824105	353.634257	780.035454	-28.060722	344.210139	693.088695	-45.853605	291.134170	622.421468	-51.382855	371.299137	686.159606	-71.458942	237.802718	501.639728	-73.977922	175.678987	451.480822	-118.353996	485.903545	465.666382	-107.427525	365.109409	443.282401	-41.853071	393.796365	460.731689	-156.101756	97.149449	968.011020	-457.472705	155.993260	904.029998	-457.480718	188.198731	921.238279	-453.001645	175.724667	817.831171	-446.442034	250.548352	709.716941	-425.876009	246.208491	701.186638	-302.334629	149.189812	569.470960	-448.923309	125.624347	490.103954	-430.789881	60.520362	426.426654	-426.031014	151.828961	476.451816	-404.219570	-11.795976	320.065834	-406.792469	-86.286031	278.681492	-359.717615	220.855235	239.158074	-356.150985	126.590445	245.275786	-314.595067	100.758870	228.984339	-430.876117	-217.901867	945.274556	-233.714409	-8.179693	83.672022	-436.974157	-14.039368	80.561285	-36.670476	
254	1.2700	550.516349	1399.981895	-65.848729	556.614216	1417.221327	-370.220163	470.096966	1473.563884	-217.586370	511.750685	1304.479856	-218.735707	532.573266	1162.658918	103.874332	734.985375	987.480040	2.171903	532.370395	1179.082352	-537.270590	730.697446	986.920523	-434.292318	-74.553356	1236.526656	-245.431024	125.233670	1210.103215	-419.308447	103.425568	1231.480879	-57.591612	118.828831	1135.686864	-384.267674	105.475260	1173.399222	-97.985257	-35.272053	1278.712085	-202.180147	-25.012308	1274.570236	-282.957218	21.947677	1167.791395	-37.376168	32.407652	1115.908450	-443.070780	138.787868	1069.640925	-20.294167	227.082700	1058.709464	-19.485025	297.531892	1009.095463	-23.130094	240.336614	1091.356453	-32.525572	408.520631	936.454525	-44.365478	416.615356	924.278521	-168.694649	354.065406	779.656126	-28.018780	344.588919	692.797687	-45.802846	291.381617	622.223198	-51.381298	371.622368	685.761382	-71.422259	237.881456	501.517361	-73.928480	175.728115	451.359757	-118.299980	485.980301	465.554683	-107.394996	365.169738	443.196057	-41.789120	393.846154	460.606061	-156.032094	97.803341	968.409671	-457.657352	156.468797	904.257392	-457.684613	188.724916	921.360340	-453.160834	175.963826	818.011941	-446.682968	250.411308	709.692215	-426.100690	245.891401	701.089854	-302.633174	149.010024	569.431472	-449.046078	125.505325	489.902915	-430.855412	60.411396	426.294074	-426.114953	151.771737	476.358603	-404.389150	-11.874131	319.933426	-406.874172	-86.353506	278.553461	-359.771462	220.823796	239.155932	-356.184486	126.554455	245.293282	-314.682912	100.728814	228.882554	-430.936107	-217.916570	945.305938	-233.879687	-8.188885	83.663548	-436.977244	-14.045633	80.567217	-36.668505	
